<?xml version="1.0" standalone="no"?>
<!DOCTYPE svg PUBLIC "-//W3C//DTD SVG 20010904//EN"
 "http://www.w3.org/TR/2001/REC-SVG-20010904/DTD/svg10.dtd">
<svg version="1.0" xmlns="http://www.w3.org/2000/svg"
 width="120.000000pt" height="120.000000pt" viewBox="0 0 120.000000 120.000000"
 preserveAspectRatio="xMidYMid meet">

<g transform="translate(0.000000,120.000000) scale(0.100000,-0.100000)"
fill="#000000" stroke="none">
<path d="M100 1150 l0 -50 -50 0 -50 0 0 -500 0 -500 50 0 50 0 0 -50 0 -50
500 0 500 0 0 50 0 50 50 0 50 0 0 500 0 500 -50 0 -50 0 0 50 0 50 -500 0
-500 0 0 -50z m900 -100 l0 -50 50 0 50 0 0 -400 0 -400 -50 0 -50 0 0 -50 0
-50 -400 0 -400 0 0 50 0 50 -50 0 -50 0 0 400 0 400 50 0 50 0 0 50 0 50 400
0 400 0 0 -50z"/>
<path d="M300 950 l0 -50 -50 0 -50 0 0 -300 0 -300 50 0 50 0 0 -50 0 -50
300 0 300 0 0 50 0 50 50 0 50 0 0 300 0 300 -50 0 -50 0 0 50 0 50 -300 0
-300 0 0 -50z m500 -350 l0 -200 -200 0 -200 0 0 200 0 200 200 0 200 0 0
-200z"/>
</g>
</svg>
